<svg version="1.1" id="Layer_1" xmlns="http://www.w3.org/2000/svg" xmlns:xlink="http://www.w3.org/1999/xlink" x="0px" y="0px"
	 width="100%" viewBox="0 0 2560 898" enable-background="new 0 0 2560 898" xml:space="preserve">
<path fill="#f8fafc" opacity="1.000000" stroke="none" 
	d="
M1510.905273,603.095703 
	C1497.300537,586.066162 1483.897583,569.328247 1469.575439,551.442383 
	C1469.575439,586.286377 1469.575439,619.764526 1469.575439,653.419861 
	C1447.206055,658.139282 1425.263184,660.412109 1403.190430,656.412476 
	C1384.876465,653.094055 1375.100708,640.148254 1374.099487,619.475769 
	C1373.970703,616.814575 1373.983887,614.145020 1373.983765,611.479309 
	C1373.978516,505.336792 1373.979370,399.194244 1373.979370,293.051727 
	C1373.979370,291.566193 1373.979370,290.080658 1373.979370,288.312775 
	C1396.722656,283.232971 1419.386108,280.478973 1442.304077,285.276855 
	C1457.434204,288.444336 1467.387573,301.276703 1468.908691,318.702423 
	C1469.299316,323.176880 1469.381104,327.689545 1469.384277,332.184814 
	C1469.417236,378.007721 1469.404419,423.830658 1469.404419,469.653564 
	C1469.404419,471.283539 1469.404419,472.913513 1469.404419,475.874847 
	C1471.517456,473.800476 1472.861328,472.529388 1474.152222,471.206696 
	C1503.713745,440.920380 1533.299927,410.657928 1562.770020,380.282898 
	C1565.201416,377.776733 1567.572876,376.848114 1571.027100,377.030853 
	C1588.771484,377.969299 1605.209106,382.171844 1618.462769,394.932220 
	C1632.866699,408.799866 1634.592163,430.267426 1623.019287,446.733917 
	C1614.081787,459.450592 1602.300903,469.222656 1590.732300,479.260284 
	C1577.396851,490.831116 1564.045166,502.383209 1550.708984,513.953186 
	C1550.490601,514.142700 1550.380615,514.457092 1550.102783,514.900574 
	C1562.890137,527.722961 1575.690063,540.583313 1588.518433,553.415283 
	C1604.540161,569.441589 1620.547363,585.482971 1636.666748,601.410522 
	C1638.761475,603.480103 1639.588013,605.384033 1639.138672,608.369568 
	C1637.463257,619.502563 1634.452393,630.078308 1628.092041,639.559326 
	C1620.879761,650.310120 1610.791992,656.266785 1598.139771,658.218506 
	C1574.905640,661.802612 1555.354736,654.738281 1539.767090,637.342224 
	C1529.887451,626.316223 1520.638672,614.724976 1510.905273,603.095703 
z"/>
<path fill="#f8fafc" opacity="1.000000" stroke="none" 
	d="
M1109.550659,397.414124 
	C1152.013428,427.317078 1168.981323,469.335846 1168.830688,519.404724 
	C1168.760620,542.697693 1164.999634,565.401367 1155.063965,586.818726 
	C1142.232056,614.478882 1122.298340,635.376160 1094.615356,647.868958 
	C1051.053711,667.527588 1006.063354,668.620239 961.407410,652.613953 
	C917.409790,636.843445 890.339172,604.594116 879.625305,559.309937 
	C870.731750,521.719788 872.776062,484.616577 889.102539,449.066833 
	C902.203369,420.540527 923.494202,399.934326 951.972595,387.011566 
	C990.265930,369.634979 1030.038696,368.420410 1069.979370,379.360382 
	C1083.675537,383.111847 1096.204590,391.124268 1109.550659,397.414124 
M1028.168823,587.980286 
	C1044.028076,586.364746 1055.385132,577.754089 1061.706909,563.722595 
	C1074.768677,534.730957 1074.622314,504.949860 1063.613892,475.392883 
	C1059.577759,464.555878 1052.024292,455.745514 1041.024536,451.191467 
	C1019.572815,442.310181 991.171814,446.607391 979.017090,477.495728 
	C970.664185,498.722748 970.975525,520.760925 974.627625,542.885742 
	C976.325012,553.168762 979.670837,562.936951 986.137024,571.233093 
	C996.561646,584.607849 1010.781128,589.170776 1028.168823,587.980286 
z"/>
<path fill="#1F90FF" opacity="1.000000" stroke="none" 
	d="
M2114.318359,584.645630 
	C2101.300049,555.134521 2098.552490,524.633484 2102.496582,493.344604 
	C2105.545410,469.156738 2113.727539,446.884491 2128.253418,427.104309 
	C2143.826904,405.897583 2164.405273,391.320251 2188.915283,382.488159 
	C2224.327637,369.727448 2260.714600,368.655609 2296.454834,379.371521 
	C2345.799805,394.166534 2378.250244,426.893494 2390.255127,477.666321 
	C2399.235840,515.649841 2396.836426,553.135681 2380.125244,588.904907 
	C2367.132324,616.715637 2346.343018,637.281311 2318.062012,649.049072 
	C2270.554932,668.816772 2222.690674,668.664368 2175.594482,647.474304 
	C2147.289795,634.739258 2127.079102,613.421326 2114.318359,584.645630 
M2297.163574,513.515747 
	C2297.153809,501.258423 2295.579590,489.224060 2290.904053,477.839355 
	C2283.642090,460.157745 2271.310547,448.594543 2251.405273,447.349487 
	C2232.552490,446.170258 2218.041992,453.698151 2208.674072,470.283386 
	C2206.401855,474.306122 2204.416016,478.637268 2203.176514,483.071960 
	C2196.710205,506.203491 2196.631592,529.528748 2203.174072,552.573181 
	C2210.325439,577.763000 2228.466309,590.146057 2254.497070,587.877075 
	C2273.294434,586.238586 2284.123779,574.122131 2290.803955,557.678711 
	C2296.416992,543.861389 2297.541748,529.268311 2297.163574,513.515747 
z"/>
<path fill="#f8fafc" opacity="1.000000" stroke="none" 
	d="
M850.249329,434.517700 
	C849.175598,442.630859 849.022949,450.597076 846.772827,457.918732 
	C843.380493,468.957245 834.339539,474.525574 823.286926,474.917816 
	C802.314026,475.662109 781.304443,475.372528 760.310059,475.509064 
	C758.339600,475.521881 756.369019,475.510773 753.994568,475.510773 
	C753.994568,534.914185 753.994568,594.018188 753.994568,653.438660 
	C739.087463,657.215515 724.218994,658.475586 709.254272,658.270996 
	C701.797424,658.169006 694.231079,657.624695 686.931580,656.181335 
	C670.575562,652.947327 660.577759,641.348083 659.052002,624.724426 
	C658.595703,619.752625 658.322876,614.744812 658.319885,609.753357 
	C658.274841,534.753723 658.128967,459.753418 658.455750,384.755249 
	C658.506836,373.025360 659.702698,361.069305 662.228455,349.628235 
	C667.944763,323.734680 683.538757,304.550049 705.957642,290.864624 
	C723.499268,280.156494 742.947632,275.333252 763.218689,273.654144 
	C785.716309,271.790588 808.022522,272.253632 830.163879,277.877167 
	C869.943298,287.980499 870.687378,329.422058 853.018494,350.495361 
	C850.524719,353.469666 848.031433,354.524536 844.006348,353.635376 
	C822.945374,348.983002 801.708252,345.521454 780.175232,349.959930 
	C774.088440,351.214569 767.999573,353.440796 762.498901,356.336853 
	C753.263611,361.198975 749.604248,369.946533 749.087219,379.949127 
	C748.718140,387.089508 749.015564,394.264343 749.015564,402.161194 
	C750.732178,402.161194 752.474609,402.161194 754.217041,402.161194 
	C781.716919,402.161224 809.217041,402.220703 836.716187,402.079407 
	C839.844055,402.063354 841.787781,402.807861 842.610901,405.853882 
	C845.153442,415.262726 847.691650,424.672699 850.249329,434.517700 
z"/>
<path fill="#f8fafc" opacity="1.000000" stroke="none" 
	d="
M1908.042236,572.024414 
	C1908.282471,615.058777 1882.667480,642.923218 1845.289307,654.953857 
	C1816.375977,664.259827 1786.661133,664.615234 1756.797241,662.527344 
	C1739.137817,661.292725 1721.691406,658.265808 1705.503784,650.852051 
	C1690.066406,643.782043 1677.193481,633.715149 1673.760986,615.654968 
	C1670.367432,597.799194 1676.043335,582.952271 1689.257202,570.687256 
	C1691.452026,568.649963 1693.038452,569.239136 1695.382568,570.204590 
	C1709.620728,576.068909 1723.595337,582.957947 1738.330200,587.132568 
	C1756.321533,592.229797 1775.091064,593.491760 1793.725830,589.926147 
	C1798.332520,589.044739 1803.014893,587.106140 1806.972412,584.574646 
	C1816.563721,578.439392 1816.071411,564.826904 1805.644653,560.324524 
	C1796.754028,556.485474 1787.083984,554.177246 1777.555542,552.143677 
	C1755.102661,547.351807 1732.782104,542.435547 1712.113525,531.825989 
	C1681.865112,516.299072 1669.912231,490.601166 1671.297363,457.963654 
	C1672.820068,422.088654 1692.617798,398.789459 1724.597534,385.165680 
	C1757.545410,371.129456 1792.025269,369.522919 1827.051514,374.455597 
	C1842.068481,376.570404 1856.929810,379.460876 1870.330444,387.078400 
	C1881.515015,393.436340 1890.810059,401.754913 1893.481201,414.971405 
	C1896.835327,431.567139 1892.452271,446.227356 1880.760132,458.632477 
	C1878.777954,460.735504 1877.180054,460.840759 1874.360229,459.719910 
	C1846.559814,448.669189 1817.970215,441.668304 1787.760498,445.084839 
	C1782.435913,445.687012 1777.245361,447.927795 1772.128662,449.785767 
	C1767.050415,451.629639 1764.643311,455.820160 1764.438477,461.004211 
	C1764.235352,466.139862 1766.866211,470.317444 1771.445557,472.157318 
	C1778.334351,474.925018 1785.475952,477.250092 1792.699707,478.963806 
	C1816.304443,484.563538 1840.004761,489.754303 1861.814941,500.974121 
	C1884.657471,512.725098 1901.367065,529.511658 1906.446289,555.670410 
	C1907.455200,560.865967 1907.528076,566.243347 1908.042236,572.024414 
z"/>
<path fill="#94a3b8" opacity="1.000000" stroke="none" 
	d="
M507.309998,326.647644 
	C493.929230,319.763672 479.989349,316.212067 465.451904,314.769012 
	C457.011780,313.931183 452.210876,317.423920 450.465332,325.722748 
	C447.362946,340.472137 445.544495,342.125610 430.262024,342.213135 
	C405.601959,342.354401 380.940491,342.271637 356.279694,342.230072 
	C353.455383,342.225311 350.596375,342.097168 347.814819,341.647034 
	C341.563568,340.635468 337.644440,337.105011 337.152588,330.833557 
	C335.860046,314.352264 328.832489,314.038513 316.360321,314.084534 
	C284.369629,314.202606 252.377808,314.266235 220.387466,314.122620 
	C205.739212,314.056854 201.793564,310.778320 201.580566,296.450867 
	C201.181976,269.640106 201.452713,242.812561 201.896805,215.999466 
	C202.070541,205.508545 205.297424,202.661362 215.696350,201.275070 
	C217.507278,201.033646 219.351456,200.945526 221.180130,200.947266 
	C294.328094,201.016708 367.477142,200.919006 440.623016,201.353836 
	C454.516785,201.436417 468.643372,202.407532 482.233612,205.118790 
	C510.057739,210.669724 532.104614,226.134735 548.232727,249.320618 
	C569.379456,279.721283 574.888428,312.971375 564.115295,348.633484 
	C563.300964,351.329193 562.260864,354.001099 560.968750,356.499451 
	C557.631653,362.951660 551.965210,363.890594 546.765869,358.842468 
	C540.087524,352.358276 533.939087,345.260315 526.813416,339.326080 
	C520.990723,334.476959 514.069458,330.946991 507.309998,326.647644 
z"/>
<path fill="#f8fafc" opacity="1.000000" stroke="none" 
	d="
M1312.825439,420.000092 
	C1312.825439,497.980957 1312.825439,575.461792 1312.825439,653.843323 
	C1303.232788,655.195801 1293.772949,657.419250 1284.263916,657.653076 
	C1271.347534,657.970764 1258.234375,657.836914 1245.496216,655.942810 
	C1229.760132,653.603027 1219.921265,641.785889 1218.074219,625.883789 
	C1217.536987,621.259521 1217.200562,616.582581 1217.198486,611.929626 
	C1217.150146,505.102905 1217.160889,398.276154 1217.160645,291.449432 
	C1217.160645,290.455414 1217.160645,289.461365 1217.160645,287.772797 
	C1224.384521,286.673706 1231.566040,285.646515 1238.724731,284.477997 
	C1252.824097,282.176544 1266.961426,282.212585 1281.016113,284.412659 
	C1299.549194,287.313843 1310.323730,298.890533 1311.950317,317.549591 
	C1312.672119,325.830475 1312.756348,334.183319 1312.788818,342.504822 
	C1312.889404,368.169556 1312.825439,393.834930 1312.825439,420.000092 
z"/>
<path fill="#1CACFF" opacity="1.000000" stroke="none" 
	d="
M1984.763428,380.843872 
	C1998.470703,381.271881 2011.894409,380.642761 2024.947144,382.551178 
	C2039.166748,384.630280 2048.838379,396.980682 2050.935547,412.477722 
	C2051.558350,417.080292 2051.914795,421.756683 2051.918701,426.399597 
	C2051.979004,500.519897 2051.962646,574.640198 2051.953857,648.760559 
	C2051.953613,650.232361 2051.829346,651.704163 2051.749512,653.477966 
	C2032.311401,657.642151 2012.907593,659.593994 1993.218140,657.497498 
	C1989.426147,657.093689 1985.579712,656.651184 1981.921265,655.638367 
	C1967.892822,651.754944 1958.378906,639.824585 1957.087280,624.597473 
	C1956.609253,618.962891 1956.335571,613.293030 1956.331665,607.639038 
	C1956.282593,535.684021 1956.299561,463.728973 1956.299561,391.773956 
	C1956.299561,389.786530 1956.299438,387.799072 1956.299438,384.956573 
	C1965.719116,383.594299 1975.017700,382.249512 1984.763428,380.843872 
z"/>
<path fill="#02A8FF" opacity="1.000000" stroke="none" 
	d="
M392.232391,485.772552 
	C380.650360,456.738312 384.112305,430.111725 403.660339,406.088013 
	C418.016602,388.444733 437.217804,379.530853 459.694183,378.846741 
	C490.707581,377.902832 519.424316,396.078125 531.028442,424.188843 
	C543.708557,454.906189 538.913696,483.310242 516.335022,507.711456 
	C503.281769,521.818420 486.494659,529.369385 466.929993,530.682373 
	C444.730682,532.172180 425.448273,525.258911 409.656006,510.220062 
	C402.619507,503.519196 398.032867,494.245667 392.232391,485.772552 
z"/>
<path fill="#1075FF" opacity="1.000000" stroke="none" 
	d="
M232.661133,700.338928 
	C214.507553,686.249512 204.405212,668.285828 202.542419,645.514160 
	C200.633957,622.184387 208.007263,602.205566 224.104492,585.809509 
	C236.782181,572.896484 252.529953,565.452148 270.929230,563.752014 
	C294.321320,561.590393 314.379242,569.072327 331.043182,584.875427 
	C344.880157,597.997620 352.377808,614.587585 353.729187,633.934692 
	C355.289703,656.276184 348.409485,675.722107 333.242279,691.683655 
	C319.922485,705.701050 303.369537,713.920227 283.467987,715.062805 
	C264.764282,716.136536 248.010315,711.589844 232.661133,700.338928 
z"/>
<path fill="#1CACFF" opacity="1.000000" stroke="none" 
	d="
M1968.788818,266.750000 
	C1991.737671,249.365494 2024.234009,250.780090 2042.485474,270.094147 
	C2057.204590,285.670197 2060.164307,304.294342 2052.867188,323.813232 
	C2045.919312,342.397614 2031.799072,353.103699 2011.637329,355.290497 
	C2001.180908,356.424683 1991.035767,355.546478 1981.317871,351.489685 
	C1948.365356,337.733734 1941.460327,291.936249 1968.788818,266.750000 
z"/>
<path fill="#0793FF" opacity="1.000000" stroke="none" 
	d="
M352.061432,519.149231 
	C352.895142,523.531250 350.581512,526.243469 346.685486,528.001221 
	C344.956116,525.740967 343.960114,523.613159 342.423859,521.999573 
	C326.746857,505.533539 310.980621,489.152405 295.241974,472.744995 
	C279.603485,456.441986 263.991211,440.113739 248.323242,423.839142 
	C237.603729,412.704529 226.917053,401.533691 215.962936,390.633087 
	C213.529617,388.211609 210.034225,386.857422 207.027847,385.011810 
	C209.503265,383.605499 211.926453,381.094116 214.462677,380.974213 
	C229.652878,380.256226 244.869095,380.088623 260.540161,380.221069 
	C261.633484,381.781891 262.074280,383.046539 262.926270,383.901184 
	C266.286743,387.272003 269.919403,390.378540 273.190338,393.830170 
	C281.855347,402.973938 290.259613,412.366669 298.996338,421.440125 
	C313.052765,436.038330 326.989685,450.774109 341.571777,464.835083 
	C350.036896,472.997803 354.647522,481.829987 353.132751,493.789825 
	C352.589264,498.080872 353.609863,502.570068 353.916595,506.968811 
	C353.844788,510.049561 353.773010,513.130310 353.225159,516.717773 
	C352.519897,517.866089 352.290680,518.507629 352.061432,519.149231 
z"/>
<path fill="#0A87FF" opacity="1.000000" stroke="none" 
	d="
M206.692398,385.133606 
	C210.034225,386.857422 213.529617,388.211609 215.962936,390.633087 
	C226.917053,401.533691 237.603729,412.704529 248.323242,423.839142 
	C263.991211,440.113739 279.603485,456.441986 295.241974,472.744995 
	C310.980621,489.152405 326.746857,505.533539 342.423859,521.999573 
	C343.960114,523.613159 344.956116,525.740967 346.331909,528.010132 
	C346.460968,528.390076 346.419708,528.363037 345.984070,528.271851 
	C341.696625,529.341187 337.844818,530.501648 333.993011,531.662109 
	C322.961914,531.761353 311.930786,531.860657 300.451904,531.501099 
	C299.460510,528.654602 299.650146,525.642761 298.243164,523.990051 
	C292.898682,517.711914 287.077179,511.835541 281.361267,505.878815 
	C271.936707,496.057159 262.485596,486.260559 252.991257,476.506348 
	C238.835327,461.963074 224.564911,447.530304 210.509399,432.890991 
	C207.902252,430.175507 205.425720,429.514771 202.163696,431.018921 
	C202.171127,419.418335 201.848587,407.802673 202.377182,396.225891 
	C202.546570,392.516235 204.966629,388.909332 206.692398,385.133606 
z"/>
<path fill="#04A1FF" opacity="1.000000" stroke="none" 
	d="
M354.146423,506.636230 
	C353.609863,502.570068 352.589264,498.080872 353.132751,493.789825 
	C354.647522,481.829987 350.036896,472.997803 341.571777,464.835083 
	C326.989685,450.774109 313.052765,436.038330 298.996338,421.440125 
	C290.259613,412.366669 281.855347,402.973938 273.190338,393.830170 
	C269.919403,390.378540 266.286743,387.272003 262.926270,383.901184 
	C262.074280,383.046539 261.633484,381.781891 260.997223,380.333740 
	C286.803406,379.977783 312.619324,379.767853 338.427063,380.133759 
	C347.304077,380.259613 352.090729,385.158417 353.576050,393.902924 
	C354.214355,397.660767 354.451080,401.528107 354.454193,405.346039 
	C354.481445,438.998535 354.414978,472.651123 354.146423,506.636230 
z"/>
<path fill="#0C7DFF" opacity="1.000000" stroke="none" 
	d="
M202.025970,431.468658 
	C205.425720,429.514771 207.902252,430.175507 210.509399,432.890991 
	C224.564911,447.530304 238.835327,461.963074 252.991257,476.506348 
	C262.485596,486.260559 271.936707,496.057159 281.361267,505.878815 
	C287.077179,511.835541 292.898682,517.711914 298.243164,523.990051 
	C299.650146,525.642761 299.460510,528.654602 299.993042,531.394531 
	C293.288666,531.816284 286.595337,531.885742 279.347290,531.722656 
	C278.463074,531.312622 278.204010,531.401123 278.015411,531.755737 
	C276.276581,531.822144 274.537750,531.888489 272.050873,531.612915 
	C267.199127,531.158203 263.095459,531.045410 258.998657,530.572205 
	C260.212067,527.363037 259.131226,525.430420 256.971893,523.362915 
	C250.059067,516.744080 243.282654,509.975037 236.634628,503.089203 
	C226.777878,492.879822 217.076248,482.520721 207.433090,472.356598 
	C205.546234,472.953125 203.862473,473.485443 202.178726,474.017792 
	C202.081894,459.984650 201.985062,445.951538 202.025970,431.468658 
z"/>
<path fill="#0E76FF" opacity="1.000000" stroke="none" 
	d="
M202.038879,474.429504 
	C203.862473,473.485443 205.546234,472.953125 207.433090,472.356598 
	C217.076248,482.520721 226.777878,492.879822 236.634628,503.089203 
	C243.282654,509.975037 250.059067,516.744080 256.971893,523.362915 
	C259.131226,525.430420 260.212067,527.363037 258.531250,530.593872 
	C253.600159,530.982239 249.141129,530.901611 244.687103,531.015991 
	C238.472794,531.175537 232.262222,531.480835 226.050049,531.723694 
	C222.602020,531.538330 219.154007,531.352905 215.307312,530.668335 
	C214.266632,530.123901 213.624619,530.078674 212.982605,530.033508 
	C211.762253,529.581604 210.541901,529.129761 209.106430,528.044983 
	C208.167160,526.973450 207.443008,526.534729 206.718872,526.096069 
	C206.381668,526.112488 206.137161,525.969910 205.893341,525.186035 
	C205.541290,524.467407 205.281250,524.231140 205.021210,523.994812 
	C203.997192,518.608459 202.973175,513.222107 202.314270,507.120148 
	C202.505722,504.276611 202.332047,502.148621 202.158371,500.020660 
	C202.070389,497.957947 201.982407,495.895264 202.248138,493.214355 
	C202.455231,491.735168 202.308640,490.874237 202.162064,490.013275 
	C202.073654,488.279480 201.985260,486.545685 202.260941,484.173187 
	C202.471497,482.361877 202.317978,481.189301 202.164444,480.016693 
	C202.075974,478.291534 201.987503,476.566376 202.038879,474.429504 
z"/>
<path fill="#0793FF" opacity="1.000000" stroke="none" 
	d="
M226.502884,531.839111 
	C232.262222,531.480835 238.472794,531.175537 244.687103,531.015991 
	C249.141129,530.901611 253.600159,530.982239 258.524353,530.954224 
	C263.095459,531.045410 267.199127,531.158203 271.625366,531.514404 
	C256.950500,531.823364 241.953110,531.888977 226.502884,531.839111 
z"/>
<path fill="#0793FF" opacity="1.000000" stroke="none" 
	d="
M334.403809,531.763428 
	C337.844818,530.501648 341.696625,529.341187 345.959717,528.268616 
	C342.518890,529.525940 338.666748,530.695374 334.403809,531.763428 
z"/>
<path fill="#0A87FF" opacity="1.000000" stroke="none" 
	d="
M202.017212,500.438232 
	C202.332047,502.148621 202.505722,504.276611 202.438660,506.681702 
	C202.090637,504.924500 201.983353,502.890137 202.017212,500.438232 
z"/>
<path fill="#04A1FF" opacity="1.000000" stroke="none" 
	d="
M352.308594,518.985352 
	C352.290680,518.507629 352.519897,517.866089 352.993439,517.119141 
	C353.010406,517.616333 352.783081,518.218933 352.308594,518.985352 
z"/>
<path fill="#0C7DFF" opacity="1.000000" stroke="none" 
	d="
M206.810944,526.410278 
	C207.443008,526.534729 208.167160,526.973450 208.926147,527.765625 
	C208.275009,527.654297 207.589020,527.189392 206.810944,526.410278 
z"/>
<path fill="#0C7DFF" opacity="1.000000" stroke="none" 
	d="
M213.145584,530.280518 
	C213.624619,530.078674 214.266632,530.123901 214.956375,530.439697 
	C214.438919,530.649414 213.873749,530.588501 213.145584,530.280518 
z"/>
<path fill="#0A87FF" opacity="1.000000" stroke="none" 
	d="
M202.022430,480.398132 
	C202.317978,481.189301 202.471497,482.361877 202.394302,483.756775 
	C202.069199,482.912567 201.974792,481.846069 202.022430,480.398132 
z"/>
<path fill="#0A87FF" opacity="1.000000" stroke="none" 
	d="
M202.021576,490.371613 
	C202.308640,490.874237 202.455231,491.735168 202.381287,492.789429 
	C202.067535,492.231781 201.974304,491.480865 202.021576,490.371613 
z"/>
<path fill="#0C7DFF" opacity="1.000000" stroke="none" 
	d="
M205.052429,524.274292 
	C205.281250,524.231140 205.541290,524.467407 205.869705,524.964172 
	C205.653290,525.000977 205.368469,524.777344 205.052429,524.274292 
z"/>
<path fill="#0793FF" opacity="1.000000" stroke="none" 
	d="
M278.257080,531.835754 
	C278.204010,531.401123 278.463074,531.312622 278.887268,531.622803 
	C278.820862,531.808899 278.659790,531.862366 278.257080,531.835754 
z"/>
</svg>